<svg xmlns="http://www.w3.org/2000/svg" viewBox="0 0 512 512" role="img" aria-label="Zalo Desktop icon">
  <rect width="512" height="512" rx="108" fill="#0068ff"/>
  <path fill="#ffffff" d="M128 151h256c23 0 42 19 42 42v101c0 23-19 42-42 42H260l-76 55c-10 7-24 0-24-12v-43h-32c-23 0-42-19-42-42V193c0-23 19-42 42-42z"/>
  <path fill="#0068ff" d="M158 229c0-10 8-18 18-18h81c7 0 13 4 16 10 3 7 2 14-3 20l-63 74h50c10 0 18 8 18 18s-8 18-18 18h-88c-7 0-13-4-16-10-3-7-2-14 3-20l63-74h-43c-10 0-18-8-18-18zm138 0c0-10 8-18 18-18s18 8 18 18v104c0 10-8 18-18 18s-18-8-18-18V229z"/>
</svg>
